<svg xmlns="http://www.w3.org/2000/svg" width="64" height="64" viewBox="0 0 24 24" fill="none" stroke="#1a4da1" stroke-width="2" stroke-linecap="round" stroke-linejoin="round">
  <!-- SiC/GaN crystal structure - hexagonal -->
  <path d="M12 2 L17 5.5 L17 12.5 L12 16 L7 12.5 L7 5.5 Z"/>
  <path d="M12 8 L15 10 L15 14 L12 16 L9 14 L9 10 Z"/>
  <line x1="12" y1="2" x2="12" y2="8"/>
  <line x1="7" y1="5.5" x2="9" y2="10"/>
  <line x1="17" y1="5.5" x2="15" y2="10"/>
  <line x1="7" y1="12.5" x2="9" y2="14"/>
  <line x1="17" y1="12.5" x2="15" y2="14"/>
  <circle cx="12" cy="2" r="1.5" fill="#1a4da1"/>
  <circle cx="12" cy="16" r="1.5" fill="#1a4da1"/>
  <circle cx="7" cy="5.5" r="1" fill="#ff6b00"/>
  <circle cx="17" cy="5.5" r="1" fill="#ff6b00"/>
  <circle cx="7" cy="12.5" r="1" fill="#ff6b00"/>
  <circle cx="17" cy="12.5" r="1" fill="#ff6b00"/>
</svg>
