<!-- Technology Icon Set -->
<svg width="800" height="600" xmlns="http://www.w3.org/2000/svg">
  <rect width="100%" height="100%" fill="#f9fafb"/>
  <text x="400" y="40" font-family="Arial, sans-serif" font-size="24" fill="#1f2937" text-anchor="middle">CRMicro Technology Icons</text>
  
  <!-- MOSFET Icon -->
  <g transform="translate(100, 100)">
    <rect width="120" height="120" fill="#dbeafe" stroke="#3b82f6" stroke-width="2" rx="10"/>
    <rect x="40" y="40" width="40" height="40" fill="white" stroke="#1f2937" stroke-width="2"/>
    <line x1="20" y1="60" x2="40" y2="60" stroke="#1f2937" stroke-width="2"/>
    <line x1="80" y1="40" x2="100" y2="40" stroke="#1f2937" stroke-width="2"/>
    <line x1="80" y1="80" x2="100" y2="80" stroke="#1f2937" stroke-width="2"/>
    <text x="60" y="110" font-family="Arial, sans-serif" font-size="12" fill="#1e3a8a" text-anchor="middle">MOSFET</text>
  </g>
  
  <!-- IGBT Icon -->
  <g transform="translate(250, 100)">
    <rect width="120" height="120" fill="#d1fae5" stroke="#10b981" stroke-width="2" rx="10"/>
    <rect x="40" y="40" width="40" height="40" fill="white" stroke="#1f2937" stroke-width="2"/>
    <line x1="20" y1="60" x2="40" y2="60" stroke="#1f2937" stroke-width="2"/>
    <line x1="80" y1="40" x2="100" y2="40" stroke="#1f2937" stroke-width="2"/>
    <line x1="80" y1="80" x2="100" y2="80" stroke="#1f2937" stroke-width="2"/>
    <path d="M 40 40 L 80 40 L 80 80 L 40 80 Z" stroke="#1f2937" stroke-width="1" fill="none"/>
    <text x="60" y="110" font-family="Arial, sans-serif" font-size="12" fill="#065f46" text-anchor="middle">IGBT</text>
  </g>
  
  <!-- SiC Icon -->
  <g transform="translate(400, 100)">
    <rect width="120" height="120" fill="#f3e8ff" stroke="#a78bfa" stroke-width="2" rx="10"/>
    <circle cx="60" cy="60" r="25" fill="white" stroke="#1f2937" stroke-width="2"/>
    <text x="60" y="65" font-family="Arial, sans-serif" font-size="20" fill="#1f2937" text-anchor="middle">C</text>
    <text x="60" y="95" font-family="Arial, sans-serif" font-size="10" fill="#7c3aed" text-anchor="middle">SILICON CARBIDE</text>
    <text x="60" y="110" font-family="Arial, sans-serif" font-size="12" fill="#7c3aed" text-anchor="middle">SiC</text>
  </g>
  
  <!-- GaN Icon -->
  <g transform="translate(550, 100)">
    <rect width="120" height="120" fill="#e0e7ff" stroke="#6366f1" stroke-width="2" rx="10"/>
    <path d="M 40 40 L 80 60 L 40 80 Z" fill="white" stroke="#1f2937" stroke-width="2"/>
    <text x="60" y="110" font-family="Arial, sans-serif" font-size="12" fill="#4f46e5" text-anchor="middle">GaN</text>
  </g>
  
  <!-- Power IC Icon -->
  <g transform="translate(100, 250)">
    <rect width="120" height="120" fill="#ffedd5" stroke="#fb923c" stroke-width="2" rx="10"/>
    <rect x="30" y="30" width="60" height="60" fill="white" stroke="#1f2937" stroke-width="2"/>
    <circle cx="40" cy="40" r="3" fill="#1f2937"/>
    <circle cx="70" cy="40" r="3" fill="#1f2937"/>
    <circle cx="40" cy="70" r="3" fill="#1f2937"/>
    <circle cx="70" cy="70" r="3" fill="#1f2937"/>
    <text x="60" y="110" font-family="Arial, sans-serif" font-size="12" fill="#9a3412" text-anchor="middle">Power IC</text>
  </g>
  
  <!-- Sensor Icon -->
  <g transform="translate(250, 250)">
    <rect width="120" height="120" fill="#dcfce7" stroke="#22c55e" stroke-width="2" rx="10"/>
    <rect x="35" y="35" width="50" height="50" fill="white" stroke="#1f2937" stroke-width="2" rx="5"/>
    <circle cx="60" cy="60" r="15" fill="none" stroke="#1f2937" stroke-width="2"/>
    <path d="M 60 45 L 60 60 M 60 60 L 75 60" stroke="#1f2937" stroke-width="2"/>
    <text x="60" y="110" font-family="Arial, sans-serif" font-size="12" fill="#166534" text-anchor="middle">Sensor</text>
  </g>
  
  <!-- Microcontroller Icon -->
  <g transform="translate(400, 250)">
    <rect width="120" height="120" fill="#f0f9ff" stroke="#0ea5e9" stroke-width="2" rx="10"/>
    <rect x="30" y="30" width="60" height="60" fill="white" stroke="#1f2937" stroke-width="2"/>
    <path d="M 30 40 L 90 40 M 30 50 L 90 50 M 30 60 L 90 60 M 30 70 L 90 70" stroke="#1f2937" stroke-width="1"/>
    <path d="M 40 30 L 40 90 M 50 30 L 50 90 M 60 30 L 60 90 M 70 30 L 70 90 M 80 30 L 80 90" stroke="#1f2937" stroke-width="1"/>
    <text x="60" y="110" font-family="Arial, sans-serif" font-size="12" fill="#0c4a6e" text-anchor="middle">MCU</text>
  </g>
  
  <!-- Battery Management Icon -->
  <g transform="translate(550, 250)">
    <rect width="120" height="120" fill="#f0f9ff" stroke="#0ea5e9" stroke-width="2" rx="10"/>
    <rect x="35" y="45" width="50" height="30" fill="white" stroke="#1f2937" stroke-width="2" rx="5"/>
    <rect x="30" y="52" width="5" height="16" fill="#1f2937" rx="2"/>
    <circle cx="50" cy="70" r="3" fill="#be123c"/>
    <circle cx="60" cy="70" r="3" fill="#be123c"/>
    <circle cx="50" cy="60" r="3" fill="#16a34a"/>
    <circle cx="60" cy="60" r="3" fill="#16a34a"/>
    <text x="60" y="110" font-family="Arial, sans-serif" font-size="10" fill="#0c4a6e" text-anchor="middle">Battery Mgmt</text>
  </g>
  
  <!-- Industrial Application Icon -->
  <g transform="translate(100, 400)">
    <rect width="120" height="120" fill="#e0e7ff" stroke="#6366f1" stroke-width="2" rx="10"/>
    <rect x="40" y="40" width="40" height="40" fill="white" stroke="#1f2937" stroke-width="2" rx="5"/>
    <path d="M 45 45 L 75 45 L 75 75 L 45 75 L 45 45 Z" fill="none" stroke="#1f2937" stroke-width="2"/>
    <circle cx="60" cy="60" r="10" fill="none" stroke="#1f2937" stroke-width="2"/>
    <path d="M 60 50 L 60 70 M 50 60 L 70 60" stroke="#1f2937" stroke-width="2"/>
    <text x="60" y="110" font-family="Arial, sans-serif" font-size="10" fill="#4f46e5" text-anchor="middle">Industrial</text>
  </g>
  
  <!-- Automotive Application Icon -->
  <g transform="translate(250, 400)">
    <rect width="120" height="120" fill="#ffe4e6" stroke="#e11d48" stroke-width="2" rx="10"/>
    <rect x="35" y="45" width="50" height="20" fill="white" stroke="#1f2937" stroke-width="2" rx="5"/>
    <circle cx="42" cy="75" r="8" fill="white" stroke="#1f2937" stroke-width="2"/>
    <circle cx="78" cy="75" r="8" fill="white" stroke="#1f2937" stroke-width="2"/>
    <text x="60" y="110" font-family="Arial, sans-serif" font-size="10" fill="#991b1b" text-anchor="middle">Automotive</text>
  </g>
  
  <!-- Energy Application Icon -->
  <g transform="translate(400, 400)">
    <rect width="120" height="120" fill="#ffedd5" stroke="#fb923c" stroke-width="2" rx="10"/>
    <path d="M 40 60 Q 60 30, 80 60 T 80 90 Q 60 120, 40 90 T 40 60 Z" fill="white" stroke="#1f2937" stroke-width="2"/>
    <path d="M 50 70 L 60 55 L 70 85" stroke="#1f2937" stroke-width="3" fill="none"/>
    <text x="60" y="110" font-family="Arial, sans-serif" font-size="10" fill="#9a3412" text-anchor="middle">Energy</text>
  </g>
  
  <!-- Consumer Application Icon -->
  <g transform="translate(550, 400)">
    <rect width="120" height="120" fill="#d1fae5" stroke="#10b981" stroke-width="2" rx="10"/>
    <rect x="40" y="45" width="40" height="50" fill="white" stroke="#1f2937" stroke-width="2" rx="5"/>
    <rect x="50" y="50" width="20" height="15" fill="#1f2937" rx="2"/>
    <rect x="45" y="70" width="30" height="5" fill="#1f2937" rx="2"/>
    <rect x="45" y="80" width="30" height="5" fill="#1f2937" rx="2"/>
    <rect x="45" y="90" width="30" height="5" fill="#1f2937" rx="2"/>
    <text x="60" y="110" font-family="Arial, sans-serif" font-size="10" fill="#065f46" text-anchor="middle">Consumer</text>
  </g>
</svg>